<?xml version="1.0" encoding="UTF-8"?>
<svg id="Layer_1" data-name="Layer 1" xmlns="http://www.w3.org/2000/svg" viewBox="0 0 800 800">
  <defs>
    <style>
      .cls-1 {
        fill: none;
        stroke: #e7e1bf;
        stroke-miterlimit: 10;
        stroke-width: 50px;
      }
    </style>
  </defs>
  <path class="cls-1" d="M100.08,169.47l183.65,183.58c.41.41.43,1.08.03,1.51l-169.22,182.3c-.41.44-.38,1.12.05,1.53l129.95,122.31c.2.19.47.3.75.3l370.99-.5-211.23-203.51c-.44-.42-1.15-.4-1.56.05l-104.56,114.39"/>
  <path class="cls-1" d="M158.07,111.92l189.65,177.39c.43.4,1.09.39,1.51-.02l176.65-175.11c.42-.42,1.11-.42,1.53,0l126.6,125.77c.2.2.31.46.32.74l11.82,370.65-210.48-204.27c-.44-.43-.44-1.13,0-1.56l110.9-108.26"/>
</svg>